inDegrees=yes
name=ik_lifting_orientations
DataType=double
version=3
OpenSimVersion=4.5-2024-01-10-34fd6af
endheader
time	pelvis_tilt	pelvis_list	pelvis_rotation	pelvis_tx	pelvis_ty	pelvis_tz	hip_flexion_r	hip_adduction_r	hip_rotation_r	knee_angle_r	knee_angle_r_beta	ankle_angle_r	subtalar_angle_r	mtp_angle_r	hip_flexion_l	hip_adduction_l	hip_rotation_l	knee_angle_l	knee_angle_l_beta	ankle_angle_l	subtalar_angle_l	mtp_angle_l	lumbar_extension	lumbar_bending	lumbar_rotation	arm_flex_r	arm_add_r	arm_rot_r	elbow_flex_r	pro_sup_r	wrist_flex_r	wrist_dev_r	arm_flex_l	arm_add_l	arm_rot_l	elbow_flex_l	pro_sup_l	wrist_flex_l	wrist_dev_l
0.29	-5.0812543235957	-20.07600297161031	-100.1596134719207	0	0.9399999998679526	0	16.4989214352207	-7.533891987678794	0	22.44625227549146	0.3917610069405953	-4.324500735288349	0	0	16.4989214352207	-7.533891987678794	0	22.44625227549146	0.3917610069405953	-4.324500735288349	0	0	-41.18339283421004	1.668390684766511	20.01109765251937	15.6324607864669	-6.104029744079405	4.215165587391886	2.312191510931291	58.52649638024512	0	0	0	-2.512563537345009	0	31.62972586875289	58.52649638024512	0	0
0.3	-5.442562076815348	-20.95923079115729	-101.3943429836744	0	0.9399999998679526	0	16.51368375202681	-7.537728527885501	0	22.46764914491838	0.3921344527617143	-4.325866535649213	0	0	16.51368375202681	-7.537728527885501	0	22.46764914491838	0.3921344527617143	-4.325866535649213	0	0	-43.51457332384712	1.870407949157935	21.05925011503236	16.03909460723569	-7.653341871248976	4.410749233806356	2.105140853773747	58.49536480064838	0	0	0	-2.515442483568187	0	31.66065493168698	58.49536480064838	0	0
0.31	-6.572679710033049	-23.4599433692448	-104.625933686544	0	0.9399999998679526	0	16.54435594947606	-7.545618567536435	0	22.51214060149139	0.3929109751679213	-4.328664889741343	0	0	16.54435594947606	-7.545618567536435	0	22.51214060149139	0.3929109751679213	-4.328664889741343	0	0	-46.71080564188301	-0.376485168064464	22.68638128440197	16.79353304689126	-7.110715867364385	4.971329793918962	2.118385905825711	58.43097891084397	0	0	0	-2.521467575818486	0	31.72462778664957	58.43097891084397	0	0
0.32	-7.071270799183862	-24.27844429751492	-104.3065528508604	0	0.9399999998679526	0	16.5935563694324	-7.558334517209849	0	22.58325885281892	0.3941522228118476	-4.333178513360975	0	0	16.5935563694324	-7.558334517209849	0	22.58325885281892	0.3941522228118476	-4.333178513360975	0	0	-49.22573378592331	0.1239327481666933	22.88907613766343	18.12061893403266	-7.338306244713226	4.701071464108583	2.781337053428222	58.32755382201089	0	0	0	-2.531080643603413	0	31.82738684029581	58.32755382201089	0	0
0.33	-8.294972009636767	-25.29559170175276	-104.491196637987	0	0.9399999998679526	0	16.60417514417054	-7.561084341233068	0	22.59858422398374	0.394419700997764	-4.33415518465333	0	0	16.60417514417054	-7.561084341233068	0	22.59858422398374	0.394419700997764	-4.33415518465333	0	0	-51.85914495920958	0.5497797055967053	23.28583999691386	18.81019907645481	-7.952566494813396	4.704931194000846	2.58587751238608	58.30522676691116	0	0	0	-2.533153567585493	0	31.84956996816138	58.30522676691116	0	0
0.34	-7.176991715289243	-26.36878108424413	-104.4774988433732	0	0.9399999998679526	0	16.61695442038724	-7.564357742872465	0	22.61707345643876	0.3947423989802706	-4.335314344260537	0	0	16.61695442038724	-7.564357742872465	0	22.61707345643876	0.3947423989802706	-4.335314344260537	0	0	-53.71928312761416	-1.209249797080368	23.52260527654402	19.94893302829341	-8.127640769265602	3.922060980973157	2.554842973725608	58.278491393301	0	0	0	-2.535676138918533	0	31.87613543688557	58.278491393301	0	0
0.35	-7.672755609783609	-27.1954621029212	-104.1831892331154	0	0.9399999998679526	0	16.62546202322654	-7.566541048040867	0	22.62936886293395	0.3949569943064828	-4.336087749003216	0	0	16.62546202322654	-7.566541048040867	0	22.62936886293395	0.3949569943064828	-4.336087749003216	0	0	-54.63636534533444	-0.6592277876241028	23.39924668436325	19.08118116559791	-8.027375540920108	3.563088348126048	2.859704706739098	58.26068044568699	0	0	0	-2.537351760434299	0	31.89383298068735	58.26068044568699	0	0
0.36	-7.945285320147021	-28.65923527316303	-104.7115458711124	0	0.9399999998679526	0	16.63719944960087	-7.569574975450221	0	22.64628531093214	0.3952522420217937	-4.33716420272735	0	0	16.63719944960087	-7.569574975450221	0	22.64628531093214	0.3952522420217937	-4.33716420272735	0	0	-57.68934574396143	-2.223121997850554	23.72006742876133	20.81208901741421	-7.424300533745647	3.203101900892675	2.0220239265436	58.23603168052097	0	0	0	-2.539644491594401	0	31.91832345820344	58.23603168052097	0	0
0.37	-7.037600579518641	-29.08564970164793	-103.8527602608287	0	0.9399999998679526	0	16.64632359170064	-7.571904183405005	0	22.6594771137527	0.3954824824152863	-4.337987943891107	0	0	16.64632359170064	-7.571904183405005	0	22.6594771137527	0.3954824824152863	-4.337987943891107	0	0	-58.78878002070094	-2.145215000205439	23.40946686260745	20.96160832681912	-8.743364242911612	2.611278477004623	2.616572682976149	58.21698012744384	0	0	0	-2.541450623448562	0	31.93725463043641	58.21698012744384	0	0
0.38	-7.313654942098212	-30.56080307884078	-104.3549762674701	0	0.9399999998679526	0	16.66359516569776	-7.576373212041998	0	22.68432755780817	0.395916204484637	-4.339573421654735	0	0	16.66359516569776	-7.576373212041998	0	22.68432755780817	0.395916204484637	-4.339573421654735	0	0	-62.18973048159813	-2.29045843556812	22.82563408333758	21.66827319363427	-9.047739759067589	3.345502799403524	2.677813474144361	58.18070587725827	0	0	0	-2.544818224178767	0	31.97329591481669	58.18070587725827	0	0
0.39	-7.305741107045166	-30.56340154095141	-104.3591921851667	0	0.9399999998679526	0	16.69929245276547	-7.585525880172688	0	22.73571987252133	0.3968131695866026	-4.342810084125578	0	0	16.69929245276547	-7.585525880172688	0	22.73571987252133	0.3968131695866026	-4.342810084125578	0	0	-62.37178087485292	-3.109822391095392	23.06169682203302	21.9193883133312	-8.05669846620259	2.808985384264842	3.372776873867141	58.10604760933893	0	0	0	-2.551827983634817	0	32.04748070908498	58.10604760933893	0	0
0.4	-7.832470787806138	-31.41033449910541	-104.0819693082856	0	0.9399999998679526	0	16.71225957281299	-7.588863265961165	0	22.75435317003645	0.3971383819787451	-4.34399160164936	0	0	16.71225957281299	-7.588863265961165	0	22.75435317003645	0.3971383819787451	-4.34399160164936	0	0	-64.71955100297247	-2.855768846576975	22.93019957193305	23.75784531196817	-8.67347791057793	2.980105582770608	2.198351278534354	58.07889768936737	0	0	0	-2.554367075007219	0	32.07445783881427	58.07889768936737	0	0
0.41	-6.637509278974821	-32.46962011164037	-103.9793688320451	0	0.9399999998679526	0	16.72865729238865	-7.593061354268943	0	22.77793382055113	0.3975499419699885	-4.345475520834014	0	0	16.72865729238865	-7.593061354268943	0	22.77793382055113	0.3975499419699885	-4.345475520834014	0	0	-66.42404531514292	-3.675485454951269	22.6671476648022	24.43071272871328	-9.413659199819461	2.539673674130137	2.185423651066438	58.04465153234565	0	0	0	-2.557594740331214	0	32.10848762520908	58.04465153234565	0	0
0.42	-6.628834967952248	-32.46795289221977	-103.9721884578187	0	0.9399999998679526	0	16.75233230731681	-7.59913022497199	0	22.81191570674209	0.3981430377700587	-4.347619872876158	0	0	16.75233230731681	-7.59913022497199	0	22.81191570674209	0.3981430377700587	-4.347619872876158	0	0	-66.59897707973907	-4.498649435966774	22.86514366667503	24.13283423693449	-9.008526153688019	2.402855141410389	3.684920237561411	57.99518097877831	0	0	0	-2.562238053402151	0	32.15764534311021	57.99518097877831	0	0
0.43	-7.138917431757577	-33.30749348901993	-103.6972366799276	0	0.9399999998679526	0	16.76150266615889	-7.601480546047169	0	22.82506988308146	0.3983726214575686	-4.348450288889623	0	0	16.76150266615889	-7.601480546047169	0	22.82506988308146	0.3983726214575686	-4.348450288889623	0	0	-68.36272142537734	-3.713245660778053	23.49760868543213	24.57283019843462	-9.486974253579342	2.686631669557695	3.174554059387646	57.97602749634249	0	0	0	-2.564037836602812	0	32.17667784055775	57.97602749634249	0	0
0.44	-7.135411044347773	-33.31539170068996	-103.6946857714681	0	0.9399999998679526	0	16.78495174663826	-7.607483382916645	0	22.85868204246481	0.3989592643075132	-4.350569745378822	0	0	16.78495174663826	-7.607483382916645	0	22.85868204246481	0.3989592643075132	-4.350569745378822	0	0	-68.9624586931845	-4.235486065618051	22.72389839300019	25.24164486973621	-9.017056167562892	4.315576608865223	3.506827982854703	57.92708292251061	0	0	0	-2.568640773032596	0	32.22531391206206	57.92708292251061	0	0
0.45	-6.918682822264342	-33.97542074226444	-104.4879883779176	0	0.9399999998679526	0	16.79256719277198	-7.609392306556472	0	22.86966238798463	0.3991509074898406	-4.351240238971138	0	0	16.79256719277198	-7.609392306556472	0	22.86966238798463	0.3991509074898406	-4.351240238971138	0	0	-69.56463308864214	-5.196024439417858	22.73380416670543	24.73393168383478	-9.644780664384772	4.190422462146911	4.142208729185809	57.91133690963628	0	0	0	-2.570170577334108	0	32.24096334212265	57.91133690963628	0	0
0.46	-6.926263097836794	-33.97497686568376	-104.5111633526491	0	0.9399999998679526	0	16.81970924743031	-7.616295268735152	0	22.90855043604655	0.399829631968195	-4.353670872622601	0	0	16.81970924743031	-7.616295268735152	0	22.90855043604655	0.399829631968195	-4.353670872622601	0	0	-69.55969147372693	-5.225333045568076	22.74626279289233	24.34903947528179	-9.327001255515931	5.381041684894766	5.296104684240789	57.85485057473428	0	0	0	-2.575518090342458	0	32.29709694410145	57.85485057473428	0	0
